<?xml version="1.0" encoding="UTF-8" standalone="no"?>
<!-- Created with Inkscape (http://www.inkscape.org/) -->

<svg
   xmlns:dc="http://purl.org/dc/elements/1.1/"
   xmlns:cc="http://creativecommons.org/ns#"
   xmlns:rdf="http://www.w3.org/1999/02/22-rdf-syntax-ns#"
   xmlns:svg="http://www.w3.org/2000/svg"
   xmlns="http://www.w3.org/2000/svg"
   xmlns:sodipodi="http://sodipodi.sourceforge.net/DTD/sodipodi-0.dtd"
   xmlns:inkscape="http://www.inkscape.org/namespaces/inkscape"
   width="584.72711"
   height="190.70749"
   id="svg3184"
   version="1.1"
   inkscape:version="0.48.4 r9939"
   sodipodi:docname="logo.svg">
  <defs
     id="defs3186" />
  <sodipodi:namedview
     id="base"
     pagecolor="#ffffff"
     bordercolor="#666666"
     borderopacity="1.0"
     inkscape:pageopacity="0.0"
     inkscape:pageshadow="2"
     inkscape:zoom="0.7"
     inkscape:cx="93.453863"
     inkscape:cy="58.276695"
     inkscape:document-units="px"
     inkscape:current-layer="layer1"
     showgrid="false"
     fit-margin-top="0"
     fit-margin-left="0"
     fit-margin-right="0"
     fit-margin-bottom="0"
     inkscape:window-width="1415"
     inkscape:window-height="708"
     inkscape:window-x="39"
     inkscape:window-y="135"
     inkscape:window-maximized="0" />
  <metadata
     id="metadata3189">
    <rdf:RDF>
      <cc:Work
         rdf:about="">
        <dc:format>image/svg+xml</dc:format>
        <dc:type
           rdf:resource="http://purl.org/dc/dcmitype/StillImage" />
        <dc:title></dc:title>
      </cc:Work>
    </rdf:RDF>
  </metadata>
  <g
     inkscape:label="Layer 1"
     inkscape:groupmode="layer"
     id="layer1"
     transform="translate(117.69912,-0.46084978)">
    <path
       inkscape:connector-curvature="0"
       style="fill:#e3f4d7;stroke:none;display:inline"
       d="m 407.29373,52.136632 c -6.52193,-0.977261 -13.53081,0.08856 -20.0907,-1.213893 -3.16362,-0.63521 -11.64654,-1.950974 -11.35819,-2.981215 4.1418,-0.598063 11.0766,-4.912219 8.21801,-7.206446 -6.71549,2.2122 -13.77431,4.159615 -20.26779,6.748426 -6.95835,2.710434 -13.4974,6.316871 -21.98157,6.749202 -4.2151,0.03833 -12.76027,1.419602 -14.29022,-1.150545 2.2511,-4.554979 10.45191,-4.160013 15.69003,-6.510828 5.20124,-2.045076 11.91479,-3.682149 14.09376,-7.725866 -2.69677,-3.63646 -7.23709,3.103626 -11.50752,3.059969 -6.75716,2.25826 -15.75217,2.221046 -20.55772,6.483138 -5.18421,3.186482 -11.01948,7.581254 -19.02917,6.361927 -6.56147,1.201079 -12.39886,-2.969646 -19.00919,-1.526833 -9.12941,1.157261 -17.28791,4.327656 -26.40769,5.525833 -3.45992,0.0368 -12.88464,-1.097767 -5.55636,-2.995516 8.99043,-3.740114 16.19859,-9.569087 26.71349,-11.562723 9.38128,-1.616917 19.90521,-0.568255 28.57097,-3.706096 3.55155,-2.161084 10.23507,-0.623905 14.66528,-3.504748 7.08023,-2.459998 13.83153,-5.855045 21.92774,-6.706691 5.06385,-3.44954 -5.65045,-6.781886 -9.5472,-3.44461 -4.58845,1.478941 -12.37875,5.737197 -15.89922,4.452117 -2.36753,-2.519312 9.95794,-8.302045 1.04438,-8.735592 -7.01226,1.988199 -8.00619,7.83755 -12.26215,11.585773 -3.52847,4.3503 -14.34716,2.974891 -20.90917,2.422127 -6.83016,0.350146 -1.1202,-6.056817 -9.43819,-5.544163 -6.49435,0.307553 -2.29495,5.398033 -8.13672,5.933396 -7.397,4.811533 -15.43567,9.173926 -24.30756,12.789422 -8.41665,4.118909 -17.51142,7.576367 -26.39656,11.224141 -4.19096,2.982968 -9.87583,5.737228 -15.42936,6.859248 -10.77368,1.04804 -21.0999,3.706228 -30.89746,6.6992 -7.02876,2.860394 -14.92676,5.255011 -23.20005,5.939337 -3.58296,-0.338798 -10.82257,2.169315 -15.35001,3.50305 -4.07993,0.838377 -9.36912,5.241188 -10.35914,0.114592 -1.07784,-5.335636 -5.28739,-10.048719 -8.98057,-14.778276 7.81506,-0.95406 15.99211,-2.845706 23.1265,-5.323946 10.93961,-2.508157 22.99855,-1.354808 33.94809,-3.745935 3.35993,-0.703371 9.97047,-1.646124 16.01323,-2.475822 3.98612,-0.547325 7.67743,0.879118 11.02563,0.685828 6.28917,-2.470557 -3.65653,-3.705172 -6.89044,-3.209608 1.54476,-1.430739 11.73122,-3.385802 5.21895,-5.084585 -7.64613,0.128722 -10.87805,5.359194 -18.69926,5.579266 -9.26078,2.387198 -19.59923,2.982353 -29.52383,2.363687 0.51482,-2.682758 8.74132,-5.934153 9.17151,-9.99663 1.70803,-2.227442 10.45409,-7.61136 3.99104,-8.503835 -5.23905,2.421778 -6.58165,6.885338 -10.87807,9.786909 -3.00105,2.983498 -7.05969,5.48613 -10.57299,8.186107 -7.73695,3.826596 -17.31679,5.678447 -26.89933,6.366165 -6.12429,1.419713 -5.97002,-6.055034 -7.89287,-8.876843 -3.26252,-5.639673 9.74067,-5.039599 14.76918,-6.986969 4.56393,-1.697093 15.07996,-1.877747 14.7175,-6.033126 -6.21014,-1.169163 -12.23623,2.615625 -18.48793,3.090087 -3.09973,0.757146 -8.42853,1.154942 -3.83146,-1.382231 4.38858,-1.839641 7.04306,-6.268859 8.73174,-7.991363 6.15941,0.08001 12.45472,-1.226353 17.25817,-3.711471 11.31365,-2.154782 18.21003,-11.131359 32.70209,-5.397086 6.12536,2.774282 13.96463,0.91533 20.3961,2.871873 5.05474,2.435398 11.10803,4.764382 14.30654,8.281872 3.58417,3.330338 4.95224,8.564605 11.87036,9.587196 6.33596,1.590324 5.95432,-2.92868 0.51026,-3.639278 -4.39557,-2.895945 -7.92486,-6.548472 -10.17046,-10.297549 -1.68856,-5.844409 12.19161,-2.269856 14.84084,-6.035823 -3.91144,-3.398316 -14.04888,-0.901707 -19.1446,0.05377 -5.89217,-0.647533 -11.5628,-2.667015 -17.72652,-2.80422 -3.1385,-0.443775 -13.18461,0.270878 -11.42172,-2.664672 9.75662,-1.927054 18.30127,-6.636716 28.92616,-6.582344 7.13022,-0.560254 14.64849,0.157149 21.54448,-1.129265 5.05308,-4.4673367 -6.47049,-2.140079 -10.02732,-2.388797 -3.42866,0.284186 -9.23918,0.41805 -2.78151,-1.028596 5.29717,-0.09037 7.34282,-5.9298098 0.55438,-4.207799 -5.00302,3.0122793 -11.37047,4.103196 -17.58311,5.638602 -6.91536,1.624066 2.20931,-3.956044 3.8954,-5.0861725 4.28363,-1.1218135 3.45402,-6.30900919 -1.30017,-3.4834669 -8.24226,4.0558568 -13.90855,10.0297384 -22.54483,13.7265314 -7.39482,1.518375 -16.01637,0.510233 -22.69139,3.573444 -7.64041,3.799207 -16.64284,6.585797 -26.04485,7.969196 0.64466,-3.019801 2.25173,-8.278454 6.01369,-10.929675 4.80965,-3.791675 10.23375,-7.542568 11.68247,-12.5781823 0.80144,-1.3601164 3.13346,-6.965516 -0.54972,-4.3155562 -4.07913,3.1224584 -6.22541,7.1635527 -10.03394,10.4429895 -2.78444,3.841843 -7.72213,6.599867 -11.41957,9.968537 -3.88565,4.354668 -8.28326,8.582392 -10.37143,13.493777 -5.13355,8.202863 -18.245348,11.802179 -19.184412,21.289952 0.39999,3.702529 3.302631,6.977249 5.871332,10.212758 -16.41317,0.373475 -32.845715,1.24317 -49.277823,0.568488 -6.146377,0.483452 -12.733601,1.855152 -16.866916,4.967132 -5.395731,0.80508 -10.289464,5.16245 -14.520599,8.13368 -4.712798,2.850146 -5.588238,5.914908 -15.3188637,5.594962 -5.5334695,1.003496 -10.3423021,1.218556 -16.0776513,2.381968 -10.191952,2.284095 -20.285415,5.520028 -26.954913,11.222085 -2.687308,1.591635 -7.490021,6.578345 -9.417975,5.876355 1.581883,-7.424723 6.936885,-14.395692 14.119908,-20.144931 5.943425,-5.580669 17.720181,-7.939025 22.273463,-14.198132 7.0318737,-2.872229 12.0870289,-6.986164 17.7779082,-6.607106 11.6289938,-6.674655 28.6933588,-6.378376 43.2164228,-7.935376 11.700992,-1.348587 23.612031,-1.689891 35.367895,-2.723554 5.350978,0.438605 16.369944,-4.751795 6.787381,-5.927359 -8.752832,4.180717 -41.197621,1.189412 -48.218893,3.869766 2.188189,-4.48351 8.32727,-7.846673 15.24226,-8.967999 9.140768,-4.042704 18.935082,-7.534636 29.095343,-10.376869 4.723411,0.428641 6.997999,-3.790611 0.984121,-3.178904 -6.781867,0.164408 -12.311694,3.007325 -18.504519,4.410396 1.335874,-4.168013 0.531738,-9.049449 5.959148,-12.056449 1.86692,-2.197651 12.105038,-6.726625 5.7585,-8.165431 -9.583708,2.596262 -13.129486,9.419524 -16.004353,15.349053 -0.367604,5.257516 -7.261083,7.930525 -13.512051,10.22401 -7.857364,3.562145 -16.040695,7.147845 -21.788893,12.216707 -6.213613,2.717737 -14.2802,2.341375 -21.036695,4.306915 -4.5648378,1.013962 -6.0915114,0.574805 -2.8061451,-1.886843 2.6612031,-3.49526 5.1071601,-7.187075 9.4825581,-9.918536 1.841567,-5.881588 -7.9087875,-0.73797 -9.5893287,1.749217 -5.1892966,3.350336 -7.02757606,7.953961 -11.1072243,11.73758 -6.678511,4.535175 -13.431954,9.081177 -18.591272,14.438833 -6.77817,-1.440682 -2.664577,-7.583773 -2.88295,-11.166206 2.039686,-8.54538 4.357846,-17.291177 10.299796,-25.070074 3.592471,-3.523646 9.849986,-5.211864 14.00673641,-8.325836 C 4.0371341,23.759281 10.692994,21.911373 14.537487,18.199345 12.417882,13.832163 3.8629072,20.144695 0.51242997,21.659998 -2.4812621,22.79238 -7.6828338,27.975309 -9.211097,26.792366 c 1.370299,-3.971174 2.0996815,-8.154254 4.3175542,-11.9199 2.7677974,-1.576554 4.68049193,-9.4583291 -1.1869081,-6.7240092 -4.5092111,6.5660862 -7.1293811,13.4826722 -10.8621821,20.2607542 -3.065004,3.65989 -5.200446,7.299777 -6.419452,11.384648 -2.482457,1.810364 -4.25402,9.882289 -8.329713,4.740787 -5.903857,-3.111564 -3.355437,-8.071074 -3.833563,-12.147065 -2.565714,-1.72413 -5.332197,1.856081 -5.554889,-1.921796 0.33098,-3.371327 -6.913688,-7.939426 -6.058302,-2.175438 0.136877,5.102332 5.524095,9.287191 6.480751,14.278836 2.302255,4.158591 7.346231,7.662628 7.349101,12.300636 1.304082,10.195626 -5.014701,20.022586 -13.6732,28.214924 -3.494381,4.425537 -8.761211,8.1229 -12.578486,12.356436 0.429846,3.588341 -6.388516,6.953091 -7.02481,11.164891 -2.143077,4.13724 1.132368,8.64545 5.377908,11.72939 5.558415,1.8915 12.593953,1.98353 14.512537,6.69735 1.191558,2.13383 -0.354201,7.46975 -2.907682,10.34117 -10.275222,11.91186 -25.613929,21.44982 -38.75169,31.96431 -1.881533,1.6739 -11.521424,4.41151 -13.533697,6.09194 -2.01244,1.68054 3.60274,2.30392 2.938484,4.40193 0.463009,2.03412 -15.110804,7.50471 -18.749784,10.3797 6.09853,9.87621 38.744847,-8.19537 52.21955,-7.73063 7.803264,0.26925 29.107771,-2.79755 35.572298,-3.52192 5.258135,0.095 17.911161,7.6472 21.0638834,7.85857 11.7041932,0.78496 -11.2445074,-9.09386 -2.8500114,-12.14111 8.0978822,-1.42477 16.6702433,-0.5482 24.697304,-2.25469 5.9699,-1.30613 12.590102,-0.14095 18.256133,-2.08636 7.399774,-2.11584 14.042017,-5.26792 21.656525,-7.06127 4.746094,-4.55925 -7.405246,-2.71755 -10.305057,-1.12381 -5.315642,2.95776 -12.265119,3.51591 -19.060552,3.97249 -10.086791,0.61339 -20.2457384,1.64004 -30.4025287,1.1185 -5.6477073,-1.21758 4.7127704,-4.56359 7.0019154,-5.8167 10.7931733,-4.08594 24.7008093,-8.95814 30.4517373,-14.11665 15.330608,-9.10027 34.815974,-14.29901 53.974193,-19.04771 6.876072,-1.39593 13.877782,-3.47105 21.2408,-3.11119 5.86581,2.42746 11.79094,-1.82025 17.82548,-0.90839 5.51938,0.0637 11.70155,0.22283 17.69318,0.59127 7.17798,-2.06895 12.29191,2.40224 19.30517,3.56676 6.7568,1.32125 12.92135,2.20497 15.36005,7.14087 3.67574,4.8698 3.48877,10.52015 3.36094,15.79528 -0.9892,5.07991 -9.37935,7.20342 -12.53481,11.54997 -4.72781,5.08919 6.73378,0.19669 9.07074,-1.25341 2.00583,-2.22675 3.67662,-3.04879 6.95346,-2.19719 3.63403,-3.24331 2.38489,-7.88702 2.91109,-11.75809 -1.28374,-2.61208 2.45252,-9.00773 4.64899,-3.40461 3.75139,2.61918 6.70958,5.84669 10.87765,8.43101 4.2646,3.34793 7.01924,-1.29557 1.95845,-2.70872 -1.962,-2.60693 -12.05331,-6.00872 -5.32445,-8.40433 4.70255,0.41836 6.20106,-3.47276 0.68902,-2.99775 -5.99767,0.22334 -12.37341,-1.03686 -15.79311,-4.5184 -2.48647,-2.7938 -7.45096,-6.40382 -8.76755,-8.53798 11.93501,-1.22355 24.44958,-1.15734 36.29499,0.73736 9.65751,2.82511 14.58333,10.01447 24.44954,12.6947 4.83425,2.03343 10.69687,-2.15713 3.11885,-3.06112 -5.73995,-0.58498 -6.22206,-5.81878 -12.31348,-6.97073 -7.63571,-4.55619 6.90003,-4.4133 11.0682,-2.89423 12.28123,2.18587 24.32614,5.24855 34.77773,10.1074 5.12227,2.19681 11.34021,4.26112 13.92101,8.06279 2.97229,5.61072 0.7164,11.71273 3.34288,17.31216 6.48316,1.76589 3.14724,-5.96153 3.55917,-8.48284 -0.6417,-5.9819 11.51049,-2.96542 11.26503,1.49767 2.57055,4.81341 10.3373,6.77288 16.79315,8.8224 2.63768,1.03846 6.83589,0.87683 2.52898,-1.07214 -4.2805,-3.50425 -10.81398,-5.86687 -14.02629,-9.96247 0.98734,-1.96618 13.9833,-2.31251 6.88874,-4.96437 -7.25069,-0.23779 -15.91332,0.49827 -21.20669,-3.61527 -4.06335,-2.72752 -3.56181,-6.15467 2.87496,-4.38536 7.93327,0.86621 16.00011,0.8788 23.94753,1.36125 10.90804,2.36303 16.92456,9.41568 23.44026,15.10816 6.37692,5.63944 7.92625,7.24702 15.98333,11.8516 10.40108,6.57115 10.99304,-1.99655 -2.00862,-6.37525 -2.19394,-1.85028 -6.70655,-6.49366 -5.11493,-7.51892 5.45745,2.2491 11.71354,2.33312 17.17248,4.43021 6.64365,1.68318 13.65988,3.81496 18.27218,7.47008 3.91859,2.42684 11.1481,-2.36949 -4.11083,-8.01754 8.09971,-0.98796 16.20538,0.64901 24.22193,1.154 4.82611,-3.5858 -8.10081,-4.28207 -11.95849,-4.80691 -9.53524,-1.16089 -19.25842,-0.22566 -28.79531,-1.19794 -5.54444,-2.2596 -11.52542,-4.18223 -17.50802,-5.98078 -5.80981,-2.19984 -11.84461,-4.50537 -16.17848,-7.91998 9.47949,-4.19885 20.91861,-6.0666 31.23027,-9.26368 4.8121,-0.11352 5.82084,-4.53319 0.13901,-3.41575 -6.64573,0.17193 -12.1086,2.49077 -18.13522,3.91745 -6.10408,1.2031 -12.34342,2.37534 -17.73569,4.56088 -9.99673,0.83034 -20.1215,-0.59021 -30.0534,-1.47494 -4.0442,0.0473 -5.55078,-1.32563 -6.1676,-3.45584 -3.70672,-0.29672 -6.12125,3.67923 -10.11128,0.74914 -3.80381,-1.17485 -9.04691,-3.62201 -2.17198,-4.48089 5.00588,-2.47802 14.92706,2.09432 16.69246,-2.91717 -3.60059,-3.42198 -11.50377,-2.85839 -17.16623,-2.65903 -7.09098,0.87848 -14.28978,0.69017 -21.3495,-0.37506 -7.68114,-1.20194 -16.08972,-1.63335 -22.84193,-4.54254 4.60588,-3.27507 11.73273,-3.32195 18.03781,-3.5654 5.95541,-1.36442 11.90814,-3.18971 18.60438,-2.37895 6.93093,0.85064 13.78902,2.1508 20.95313,1.73856 3.46227,0.0836 16.42799,-0.1086 10.48441,-3.49339 -7.79497,-0.97851 -15.87424,0.28159 -23.62791,-1.03982 6.18559,-3.67227 -5.45189,-4.12654 -8.84661,-2.56129 -6.14298,1.20149 -12.54581,-0.35436 -17.31799,2.61037 -7.47095,0.51905 -17.07792,-1.59875 -22.43108,2.96423 -7.86084,5.13952 -20.00991,7.4331 -31.00142,6.16151 -9.54934,-1.1497 -3.23388,-7.85665 1.60379,-10.08506 6.19226,-3.75849 13.83974,-7.2724 22.72723,-7.057458 10.58596,-0.821142 20.89962,-2.899097 31.59339,-3.112433 6.55172,-0.149026 12.08948,-7.045846 17.33503,-2.848403 2.93767,1.605929 15.60499,1.963137 11.67515,-1.480613 -2.94174,0.09968 -10.39793,-2.259474 -9.05784,-2.833257 5.82849,-2.894872 11.88956,-4.611 19.36261,-4.552911 6.55586,-1.085948 0.609,-5.291111 -3.70886,-2.819217 -7.0256,1.559495 -15.05809,-0.275765 -21.18895,3.17613 -3.1989,1.984729 -5.79908,-3.411292 -9.39348,-4.263875 5.62758,-2.155966 -5.19113,-4.879579 -8.57762,-5.42503 -6.64154,-1.072926 -13.77081,1.324081 -18.78972,-2.955483 -4.19016,-0.886283 -3.36729,-4.15446 0.76634,-2.899648 8.67039,-2.992147 18.56056,0.554894 27.72203,-0.920504 6.91898,-1.814542 14.34996,-2.67296 21.80648,-3.07019 6.39497,-1.284825 13.1847,-1.713919 19.67173,-0.266766 5.14149,0.353558 10.0663,-0.76895 11.9405,3.488463 4.76233,5.873886 8.60329,12.420188 16.1232,17.072839 5.50669,2.856683 5.29013,8.542623 11.11471,11.655597 3.71986,1.41516 -0.54555,3.685926 3.70262,5.301849 -1.99342,4.269 -0.57465,8.94845 -0.18876,13.36456 -1.03769,2.61109 4.04927,7.89806 5.72007,3.15525 0.86973,-3.32538 -2.31246,-8.62885 1.69515,-10.68147 5.4935,2.26087 7.67852,7.06996 12.96861,9.19088 3.95722,-2.54945 -2.96776,-6.90008 -4.90522,-9.69772 -5.39088,-4.12574 -9.28488,-8.909615 -13.40213,-13.576371 -2.80167,-2.49954 -6.50186,-3.611988 -2.91522,-6.627924 4.16484,4.427533 12.72034,3.444413 17.29245,7.428075 5.41985,3.377553 11.47248,6.470291 15.71382,10.53836 -0.27891,5.27589 4.77541,9.36553 7.24995,14.18243 -0.66376,2.62905 5.25364,8.05772 6.35515,3.03861 0.53349,-4.94506 -3.98094,-9.25838 -5.65081,-13.91379 3.49501,-2.26757 10.25261,7.26707 14.26116,3.51607 -1.58707,-4.56589 -8.96467,-6.81677 -14.27818,-9.38968 -7.49797,-1.572812 -4.9817,-6.667323 -11.57865,-9.060357 -9.52823,-5.179928 -20.39857,-9.464889 -32.30906,-11.736615 -7.68537,-1.403706 -7.19273,-5.580938 -10.09246,-9.565984 -1.94673,-2.578632 -5.79605,-6.919508 1.74924,-6.144095 10.38648,-0.263633 21.14868,-0.231515 31.16609,1.870607 4.81119,1.488369 11.06215,4.617325 12.10058,7.527563 3.21499,3.448992 8.00841,6.36401 13.38185,8.35232 8.86062,-0.432331 -2.82187,-6.556756 -5.35657,-8.720924 0.21243,-3.238993 10.38249,-0.43928 13.58894,0.883841 7.87069,3.38908 15.26083,8.517566 16.65633,14.793849 0.31614,6.944342 -1.57708,13.873815 -3.79504,20.620725 -3.25687,4.25149 7.70731,4.98249 6.69712,0.35728 2.68116,-3.62851 0.337,-9.21151 4.07918,-11.859197 -0.81777,4.585647 2.43471,9.192237 3.49315,13.740397 1.5876,5.06943 1.96156,11.32677 -4.95275,14.79402 -3.51725,3.7389 -6.1909,7.78438 -10.23975,11.35014 -4.76197,1.87481 0.31471,5.40858 2.97246,2.01037 3.95641,-3.27452 6.44702,-7.31958 11.85192,-9.76257 1.19266,5.28911 -1.69409,10.4021 -2.99579,15.51563 -0.28531,3.87044 -0.40745,7.96059 1.85854,11.61968 6.228,2.79688 3.51418,-5.22435 3.77882,-7.51316 0.42126,-4.31826 1.17442,-8.81985 4.17831,-12.70665 3.37018,3.63018 5.61886,7.62261 9.26726,11.1758 6.69624,2.82449 3.62572,-3.45594 1.01058,-5.29695 -2.73798,-3.84761 -5.74778,-7.71469 -9.76666,-11.07538 -1.40246,-4.19594 -1.71363,-8.84329 1.07212,-12.7596 0.81582,-4.9934 -3.52208,-10.01293 -1.9989,-14.88803 9.68683,3.23802 17.88922,8.03783 26.55863,12.25924 9.71471,1.88788 0.59771,-5.35493 -0.46833,-6.45821 3.52634,-0.23247 11.1537,-4.83092 3.65749,-4.76335 -6.45365,1.74863 -13.71675,2.96699 -18.68623,-1.27242 -6.29568,-3.50799 -13.02689,-7.167051 -16.54477,-12.169575 2.63076,-2.810257 11.36505,2.161451 14.88105,3.734469 3.90795,2.991217 9.08458,-0.70299 3.78163,-2.705555 -2.42691,-1.11845 -7.70151,-2.864734 -1.61881,-2.600845 3.21485,0.515103 13.83107,0.145115 7.77703,-2.713082 -7.18407,-1.77203 -15.45141,-0.184095 -22.22526,-3.000235 -7.0399,-2.516433 -12.61307,-6.652259 -16.34677,-11.239505 -2.13927,-3.732266 12.71536,-3.841086 4.90221,-7.44502 -6.11216,1.028655 -10.99135,3.022418 -17.63247,1.41178 -5.91326,-0.991897 -11.86201,2.198086 -15.62099,-2.23176 -6.19676,-3.516106 -12.86234,-7.69398 -21.6591,-7.522443 -3.36049,-0.28391 -10.6836,0.356393 -11.40292,-0.08925 5.95569,-2.238372 11.31942,-6.255368 19.07541,-4.903464 7.19997,0.889522 15.51328,2.226834 19.15664,6.882913 0.96379,3.106602 12.21646,5.663748 8.84306,0.825297 -2.51569,-1.90561 -10.64244,-6.058177 -2.09499,-5.16148 2.32293,-0.478679 11.82825,0.23443 8.865,-2.853037 z M 257.62521,80.277427 c 1.64879,2.680104 12.55157,5.032424 4.74931,6.463156 -9.02658,2.593515 -19.13574,2.873347 -28.65848,4.382166 -3.949,0.137805 -13.4282,1.579901 -13.86888,-1.152334 2.92072,-3.510812 6.54961,-6.737798 9.85699,-10.091745 -1.85582,-1.744736 -3.5892,-1.200267 -5.27193,0.289502 -5.10066,3.212669 -10.90256,6.293833 -13.38864,10.750144 -5.00924,3.705723 -11.3914,6.57143 -16.07746,10.516214 -6.16448,5.11314 -14.05201,10.01964 -24.46034,10.80613 -8.48815,0.71223 -17.29996,1.32765 -25.80398,0.40596 -6.31156,-2.2069 -13.79669,-0.8014 -20.60324,-1.50062 -5.15077,0.0558 -14.006,-0.93906 -7.46007,-4.75993 5.90609,-4.85994 12.29236,-9.885496 20.80818,-12.837641 6.18835,-2.024375 13.28365,-2.358251 19.54714,-4.20143 5.03197,-1.443497 11.1662,0.193093 16.33353,1.051772 5.61929,2.125117 12.71895,5.079969 18.7781,1.715016 3.46361,-3.959636 14.70445,-3.151023 15.81258,-7.539009 -4.2973,-3.402185 -11.69761,0.535468 -16.71938,1.428561 -4.66104,2.11282 -9.93985,1.009833 -13.72668,-1.387665 -3.11521,-0.956428 2.23079,-1.491785 3.34447,-2.237774 11.39216,-3.781271 23.58628,-7.103717 36.45884,-7.890843 7.75977,0.312665 14.0571,5.377571 22.21759,3.898344 5.67066,-0.715673 13.45513,-0.659382 18.13238,1.892586 z m -154.6148,-8.434566 c 5.59254,3.477313 9.36142,8.169732 8.56065,13.104936 2.19556,3.24411 -3.69819,6.159315 -4.56972,9.868605 -6.92691,8.267048 -17.023382,16.144268 -30.827655,19.607588 -4.974586,0.24651 -7.20823,4.9788 -13.372685,4.25173 -3.048818,0.80353 -3.947944,-0.27549 -3.907685,-2.17715 -0.588334,-3.1051 -2.263033,-6.36099 -0.655159,-9.40493 4.935344,-2.76112 12.540841,-2.59602 18.179589,-4.76822 7.698787,-1.8834 19.877509,-0.79256 25.648225,-4.870435 0.14517,-3.899089 -7.703935,-1.055119 -10.90148,-0.19089 -2.599183,0.370597 -4.305761,2.11637 -6.291627,0.723474 2.082404,-2.620367 14.077907,-5.921006 8.297865,-8.687508 -7.006655,1.069317 -10.468314,5.838118 -16.68261,7.918666 -2.493836,0.851463 -12.252638,5.633163 -8.12999,1.015028 2.607702,-1.484419 3.816507,-7.405505 -1.262357,-4.407868 -5.543246,3.999081 -10.39053,9.766953 -19.51316,10.325823 -7.310724,-0.56086 -14.311853,-2.45744 -21.666634,-3.05282 -6.240682,0.17845 -12.147962,-2.892183 -6.936214,-6.706266 2.644455,-2.876391 4.967333,-7.054133 10.909408,-4.837252 8.263027,0.01869 17.427069,1.15305 24.847203,-1.719511 6.036545,-1.723875 4.099327,-8.830414 -3.170816,-5.891215 -7.497784,0.980507 -15.168804,1.482908 -22.834605,1.479379 4.407759,-2.737787 2.439876,-6.035343 8.808793,-7.103808 5.059976,-1.321128 11.222346,-4.531739 15.239533,-3.77245 6.555845,-0.104206 13.005435,0.620501 19.559442,0.08726 9.302168,-0.41486 18.698847,-0.969976 27.835899,-1.922741 1.09315,0.197762 1.97587,0.673918 2.8358,1.130606 z M 7.8432484,91.885641 c -2.6715797,3.692418 -8.76613577,7.600618 -5.4863328,12.000739 4.6378997,4.12627 12.2615554,6.64853 19.7647794,7.76114 3.36249,-0.11524 8.484309,0.0132 2.765684,1.75038 -9.825609,3.48264 -18.5162137,8.91925 -30.0927165,9.78851 -6.8768935,1.20608 -12.0991455,-3.10623 -18.9615805,-1.9805 -1.282582,-3.76165 -7.633848,-6.69612 -6.103137,-10.69111 1.957852,-4.15193 7.077045,-7.00801 11.62613,-9.91633 4.416012,-2.54272 6.974315,-4.752188 12.3182054,-6.396861 2.24396,-0.985734 9.9382262,-2.237432 14.168968,-2.315968 z M 37.198122,115.27077 c 1.97685,3.8627 -0.534422,8.70594 -4.74035,11.62351 -9.667703,5.55488 -26.8142249,12.50586 -29.8973526,15.99312 -8.9936128,4.40368 -18.8967934,7.99703 -27.5589344,12.67366 -5.221626,0.27267 -12.439716,5.06723 -15.954917,4.08954 5.358237,-8.33945 11.832795,-16.67635 22.829296,-22.44659 6.830235,-4.23273 14.7671582,-7.85857 24.0155825,-9.41773 11.1266455,-2.87689 19.6009625,-8.5509 29.6427065,-12.58319 l 1.102483,-0.0973 0.561468,0.16455 z"
       id="path2451"
       sodipodi:nodetypes="ccccccccccccccccccccccccccccccccccccsccccccccccccccccccccccccccccccccccccccccccccccccccccccccccccccccccccccccccccccccccccccccccccccccccsccscscccccccccccccccccccccccccccccccccccccccccccccccccccccccccccccccccccccccccccccccccccccccsccccccccccccccccccccccccccccccccccccccccccccccccccccccccccccccccccccccccccccccccccccccccccccccccccccccccccccccccccccccccccccccccccccccccccccccccc"
       inkscape:export-filename="C:\Documents and Settings\Heather\My Documents\Cricut\halloween\scary tree.png"
       inkscape:export-xdpi="144.69"
       inkscape:export-ydpi="144.69" />
    <path
       style="fill:#bcd35f;display:inline"
       d="m -79.669963,166.56947 c -1.742291,-0.33665 -4.629014,-4.4897 -0.157363,-6.77927 6.780386,-3.47168 17.891038,-11.57341 22.789077,-17.68198 5.284285,-6.59027 10.444617,-13.86141 12.306253,-30.17117 2.423734,-21.233551 3.377645,-21.189254 11.391127,-21.731494 12.608421,-0.853161 20.841498,7.516125 29.8593338,13.490404 3.74619797,2.48185 8.380919,5.11584 10.29915,5.8533 9.1134132,3.50353 14.8106272,-2.55723 26.0226752,-13.753132 3.449226,-3.444203 7.045055,-6.40702 7.990905,-6.584034 2.48696,-0.465455 9.33074,3.01531 13.55939,6.896387 5.51262,5.059519 13.0534,14.610829 21.18019,26.827429 8.38936,12.61131 12.48492,17.08617 22.8047,24.91693 6.667705,5.05942 13.104325,11.7393 11.884795,12.3341 -0.26343,0.12849 -5.631,-0.20523 -11.927995,-0.74158 -8.29935,-0.70692 -15.5796,-0.89125 -26.46402,-0.67013 -13.43087,0.27285 -14.9358,0.20446 -14.26497,-0.64824 1.6764,-2.13064 4.43298,-8.87071 3.04197,-14.79206 -3.31696,-14.12056 -10.97292,-21.3743 -19.99015,-23.07264 -3.734489,-0.70336 -8.580257,0.0504 -15.2871,5.07059 -6.051359,4.52954 -8.091165,7.77818 -12.860075,7.77818 -4.3652592,0 -8.1738942,-2.27263 -17.1814402,-7.43382 -3.15141,-1.80571 -9.0429518,-4.24746 -10.2700838,-4.13216 -7.667375,0.72016 -6.615284,4.61694 2.498246,27.55026 2.014047,5.06842 3.8650618,9.65646 4.1131668,10.19564 0.402086,0.87384 -0.825167,0.94793 -11.2877098,0.68161 -9.8103,-0.24979 -13.977289,-0.0447 -25.364434,1.24909 -13.465873,1.52979 -29.424751,6.36423 -34.685638,5.34779 z"
       id="path3053-5"
       inkscape:connector-curvature="0"
       sodipodi:nodetypes="cssssssssssscssccsssscccscc" />
    <path
       style="fill:#cdde87;display:inline"
       d="m 138.63709,155.98458 c 0.47955,-3.22171 1.14988,-6.77596 1.48976,-7.89832 1.06821,-3.5278 -2.48316,-16.83474 -5.80874,-21.76555 -12.55049,-18.60866 -39.280505,-25.50219 -46.447065,-9.06885 l -3.97301,6.16119 -4.59872,-7.42153 c -2.37421,-3.83155 -7.63339,-8.32039 -9.44202,-11.9018 -2.08134,-4.121452 -0.4444,-6.579943 1.89403,-8.459432 2.34942,-1.888329 4.82612,-3.498826 10.14021,-1.057613 3.73255,1.714723 4.77039,1.702682 14.17237,-0.164405 28.355525,-5.630861 55.882535,5.99557 75.402795,31.8475 7.5605,10.01265 14.62327,25.13919 14.62327,31.31908 l 0,3.10593 -17.76474,-0.58651 c -9.91704,-0.32746 -20.59087,-0.0709 -24.16249,0.58076 l -6.39775,1.16728 z"
       id="path3055-3"
       inkscape:connector-curvature="0"
       sodipodi:nodetypes="ccsccssssssscsscc" />
    <path
       style="fill:#dde9af;display:inline"
       d="m 205.59873,162.02967 c -5.71918,-1.50813 -9.87071,-6.74862 -15.12561,-19.09287 -6.167,-14.48727 -16.17547,-27.99529 -26.11412,-35.24544 l -8.04432,-5.86819 8.03111,-2.257903 c 13.48521,-3.791229 28.51613,-5.111199 41.78327,-3.669247 13.55076,1.472673 19.82308,4.52537 19.82308,9.64793 0,3.65057 0.75785,3.59982 -19.5218,1.30501 -7.95476,-0.90024 -11.67478,0.80031 -11.67478,5.33704 0,5.55378 5.25867,7.81776 18.15797,7.81776 10.06733,0 11.51901,0.29381 14.07011,2.84755 3.39747,3.40075 1.46163,5.60543 -5.83653,6.64678 -6.91933,0.98722 -8.93616,2.1726 -10.74848,6.31729 -1.4026,3.20754 -1.05311,4.09134 2.55265,6.45626 5.70889,3.74431 10.0699,3.44374 17.972,-1.2385 10.05412,-5.95754 19.45695,-5.10849 23.37892,2.11094 1.80047,3.3141 -1.83136,10.21249 -7.0916,13.46954 -8.3758,5.18637 -31.21117,8.1585 -41.61187,5.41605 l 0,0 z"
       id="path3057-6"
       inkscape:connector-curvature="0" />
    <path
       style="fill:#dde9af;display:inline"
       d="m 255.63325,158.96909 c 11.38123,-8.92538 7.54951,-24.18392 -6.74844,-26.87337 -6.44133,-1.2116 -6.85791,-2.92756 -3.75606,-15.46717 2.17827,-8.80576 5.94308,-14.38283 11.24826,-16.662678 6.75222,-2.901684 17.35485,1.300278 30.09134,11.925528 l 5.92231,4.94071 2.51216,-3.24523 c 3.92762,-5.07361 12.54535,-10.45882 17.99259,-11.24348 13.07104,-1.88296 31.06397,9.05715 44.93677,27.32247 7.9443,10.45972 16.11473,28.9205 13.54561,30.60552 -0.50134,0.32893 -5.93537,0.0551 -12.07558,-0.60833 -6.14006,-0.66359 -14.77751,-0.93782 -19.19411,-0.60958 l -8.03025,0.59697 -0.74788,-10.44542 c -1.15898,-16.18713 -10.41014,-25.58042 -22.07292,-22.41204 -2.78546,0.75677 -5.48721,2.09823 -6.00365,2.98102 -0.76915,1.31445 -1.96845,1.19349 -6.62388,-0.6682 -7.6461,-3.05754 -11.49327,-2.87366 -13.53394,0.64659 -1.94597,3.35676 1.05191,13.34768 6.94952,23.16092 1.99453,3.31894 3.40297,6.15311 3.12965,6.29816 -0.27332,0.14494 -9.41192,0.60473 -20.30829,1.02154 -18.86589,0.72176 -19.68841,0.66145 -17.23321,-1.26393 z"
       id="path3059-2"
       inkscape:connector-curvature="0" />
    <path
       style="fill:#eef4d7;display:inline"
       d="m 389.67903,162.22581 c -5.98048,-2.39204 -8.73387,-6.16346 -16.52204,-22.63113 -5.66995,-11.98888 -13.09626,-21.32602 -22.62023,-28.44035 -5.11422,-3.82026 -5.24358,-4.13557 -2.2807,-5.55659 11.41108,-5.47253 39.24521,-7.908338 51.49888,-4.50669 7.26042,2.01552 12.02187,5.57538 10.63283,7.94953 -1.29725,2.21727 -7.17668,2.39541 -16.78025,0.5083 -6.46158,-1.26979 -7.15198,-1.17921 -10.27322,1.349 -3.74782,3.03558 -3.05175,7.61306 1.50571,9.90067 1.53094,0.76847 7.24035,1.28092 13.0858,1.1747 8.31404,-0.15113 10.83598,0.22944 12.72053,1.91986 1.70714,1.5313 1.86344,2.7051 0.57116,4.28894 -1.83874,2.2533 -2.65079,2.53484 -10.60161,3.67578 -6.51802,0.93523 -9.16589,4.4637 -6.50807,8.67219 2.67378,4.2337 6.45952,4.92856 15.78119,2.89651 15.67002,-3.41594 21.32091,-2.54182 24.19166,3.74262 1.61552,3.5368 1.46436,4.92395 -0.85769,7.86907 -3.54999,4.50252 -9.72934,6.60986 -23.76015,8.10301 -14.23567,1.51498 -13.63826,1.54267 -19.7838,-0.91542 l 0,0 z"
       id="path3061-7"
       inkscape:connector-curvature="0" />
  </g>
</svg>
